<svg width="24" height="20" viewBox="0 0 24 20" fill="none" xmlns="http://www.w3.org/2000/svg">
<path fill-rule="evenodd" clip-rule="evenodd" d="M8.5125 12.4375C8.5125 13.7837 7.47156 14.875 6.1875 14.875C4.90344 14.875 3.8625 13.7837 3.8625 12.4375C3.8625 11.0913 4.90344 10 6.1875 10C7.47156 10 8.5125 11.0913 8.5125 12.4375ZM7.35 12.4375C7.35 13.1106 6.82953 13.6562 6.1875 13.6562C5.54547 13.6562 5.025 13.1106 5.025 12.4375C5.025 11.7644 5.54547 11.2188 6.1875 11.2188C6.82953 11.2188 7.35 11.7644 7.35 12.4375Z" fill="#FAFAFA"/>
<path fill-rule="evenodd" clip-rule="evenodd" d="M20.1375 12.4375C20.1375 13.7837 19.0966 14.875 17.8125 14.875C16.5284 14.875 15.4875 13.7837 15.4875 12.4375C15.4875 11.0913 16.5284 10 17.8125 10C19.0966 10 20.1375 11.0913 20.1375 12.4375ZM18.975 12.4375C18.975 13.1106 18.4545 13.6562 17.8125 13.6562C17.1705 13.6562 16.65 13.1106 16.65 12.4375C16.65 11.7644 17.1705 11.2188 17.8125 11.2188C18.4545 11.2188 18.975 11.7644 18.975 12.4375Z" fill="#FAFAFA"/>
<path d="M10.2562 10C9.93523 10 9.675 10.2728 9.675 10.6094C9.675 10.9459 9.93523 11.2188 10.2562 11.2188H13.7437C14.0648 11.2188 14.325 10.9459 14.325 10.6094C14.325 10.2728 14.0648 10 13.7437 10H10.2562Z" fill="#FAFAFA"/>
<path d="M10.2562 13.6562C9.93523 13.6562 9.675 13.9291 9.675 14.2656C9.675 14.6022 9.93523 14.875 10.2562 14.875H13.7437C14.0648 14.875 14.325 14.6022 14.325 14.2656C14.325 13.9291 14.0648 13.6562 13.7437 13.6562H10.2562Z" fill="#FAFAFA"/>
<path fill-rule="evenodd" clip-rule="evenodd" d="M0.375 6.95312V15.4844C0.375 16.2804 0.860232 16.9575 1.5375 17.2085V17.9219C1.5375 18.9315 2.3182 19.75 3.28125 19.75H5.60625C6.5693 19.75 7.35 18.9315 7.35 17.9219V17.3125H16.65V17.9219C16.65 18.9315 17.4307 19.75 18.3937 19.75H20.7187C21.6818 19.75 22.4625 18.9315 22.4625 17.9219V17.2085C23.1398 16.9575 23.625 16.2804 23.625 15.4844V6.95312C23.625 5.94348 22.8443 5.125 21.8812 5.125H20.3627L19.2101 1.50002C18.9728 0.753521 18.3064 0.25 17.5559 0.25H6.44413C5.69357 0.25 5.02721 0.75352 4.78987 1.50002L3.63731 5.125H2.11875C1.1557 5.125 0.375 5.94348 0.375 6.95312ZM6.44413 1.46875C6.19394 1.46875 5.97183 1.63659 5.89271 1.88542L4.08769 7.5625H19.9123L18.1073 1.88542C18.0282 1.63659 17.8061 1.46875 17.5559 1.46875H6.44413ZM3.29483 8.78125C3.28586 8.78147 3.27685 8.78147 3.26783 8.78125H2.11875C1.79773 8.78125 1.5375 9.05408 1.5375 9.39063V15.4844C1.5375 15.8209 1.79773 16.0938 2.11875 16.0938H21.8812C22.2023 16.0938 22.4625 15.8209 22.4625 15.4844V9.39062C22.4625 9.05408 22.2023 8.78125 21.8812 8.78125H20.7322C20.7231 8.78147 20.7141 8.78147 20.7052 8.78125H3.29483ZM2.11875 7.5625C1.91494 7.5625 1.7193 7.59916 1.5375 7.66652V6.95312C1.5375 6.61658 1.79773 6.34375 2.11875 6.34375H3.24981L2.86231 7.5625H2.11875ZM22.4625 6.95312V7.66652C22.2807 7.59916 22.0851 7.5625 21.8812 7.5625H21.1377L20.7502 6.34375H21.8812C22.2023 6.34375 22.4625 6.61658 22.4625 6.95312ZM17.8125 17.3125V17.9219C17.8125 18.2584 18.0727 18.5312 18.3937 18.5312H20.7187C21.0398 18.5312 21.3 18.2584 21.3 17.9219V17.3125H17.8125ZM6.1875 17.3125H2.7V17.9219C2.7 18.2584 2.96023 18.5312 3.28125 18.5312H5.60625C5.92727 18.5312 6.1875 18.2584 6.1875 17.9219V17.3125Z" fill="#FAFAFA"/>
</svg>
