<svg width="20" height="20" viewBox="0 0 20 20" fill="none" xmlns="http://www.w3.org/2000/svg">
<path fill-rule="evenodd" clip-rule="evenodd" d="M10 4.11614L17.5 11.6161V16.875C17.5 17.9106 16.6605 18.75 15.625 18.75H4.375C3.33947 18.75 2.5 17.9106 2.5 16.875V11.6161L10 4.11614Z" fill="#FDB200"/>
<path fill-rule="evenodd" clip-rule="evenodd" d="M16.25 3.12503V7.50003L13.75 5.00003V3.12503C13.75 2.77985 14.0298 2.50003 14.375 2.50003H15.625C15.9702 2.50003 16.25 2.77985 16.25 3.12503Z" fill="#FDB200"/>
<path fill-rule="evenodd" clip-rule="evenodd" d="M9.11612 1.87503C9.60427 1.38687 10.3957 1.38687 10.8839 1.87503L19.1919 10.1831C19.436 10.4272 19.436 10.8229 19.1919 11.067C18.9479 11.311 18.5521 11.311 18.3081 11.067L10 2.75891L1.69194 11.067C1.44786 11.311 1.05214 11.311 0.808058 11.067C0.563981 10.8229 0.563981 10.4272 0.808058 10.1831L9.11612 1.87503Z" fill="#FDB200"/>
</svg>
