<svg width="24" height="24" viewBox="0 0 24 24" fill="none" xmlns="http://www.w3.org/2000/svg">
<path fill-rule="evenodd" clip-rule="evenodd" d="M16.5208 4.62832V2.3125C16.5208 1.24245 17.3883 0.375 18.4583 0.375H19.1042C20.1742 0.375 21.0417 1.24245 21.0417 2.3125V9.14915L23.4358 11.5433C23.6881 11.7955 23.6881 12.2045 23.4358 12.4567C23.1836 12.7089 22.7747 12.7089 22.5225 12.4567L12.4567 2.39085C12.2045 2.13864 11.7955 2.13864 11.5433 2.39085L1.47751 12.4567C1.22529 12.7089 0.816374 12.7089 0.56416 12.4567C0.311947 12.2045 0.311947 11.7955 0.56416 11.5433L10.63 1.47751C11.3866 0.720866 12.6134 0.720866 13.37 1.47751L16.5208 4.62832ZM17.8125 2.3125C17.8125 1.95582 18.1016 1.66667 18.4583 1.66667H19.1042C19.4608 1.66667 19.75 1.95582 19.75 2.3125V7.85749L17.8125 5.91999V2.3125Z" fill="#FAFAFA"/>
<path d="M4.25 12V21.6875C4.25 22.0442 4.53915 22.3333 4.89583 22.3333H19.1042C19.4608 22.3333 19.75 22.0442 19.75 21.6875V12C19.75 11.6433 20.0391 11.3542 20.3958 11.3542C20.7525 11.3542 21.0417 11.6433 21.0417 12V21.6875C21.0417 22.7575 20.1742 23.625 19.1042 23.625H4.89583C3.82578 23.625 2.95833 22.7575 2.95833 21.6875V12C2.95833 11.6433 3.24748 11.3542 3.60417 11.3542C3.96085 11.3542 4.25 11.6433 4.25 12Z" fill="#FAFAFA"/>
</svg>
