<svg width="40" height="32" viewBox="0 0 40 32" fill="none" xmlns="http://www.w3.org/2000/svg">
<path fill-rule="evenodd" clip-rule="evenodd" d="M14.4466 21.4147C14.2231 20.8099 14.7302 20.2439 15.3602 20.2439C15.8674 20.2439 16.2848 20.6252 16.5425 21.0738C17.0314 21.925 17.9724 22.4991 19.2096 22.6855V16.9562L18.3584 16.7265C15.9872 16.1101 14.6374 14.6475 14.6374 12.5806C14.6374 10.1874 16.4979 8.42263 19.2096 8.09627V7.09284C19.2096 6.67907 19.5363 6.34364 19.9392 6.34364C20.3421 6.34364 20.6688 6.67906 20.6688 7.09284V8.06001C22.9533 8.20811 24.6537 9.32398 25.3259 10.9663C25.5722 11.5681 25.0646 12.1455 24.4289 12.1455C23.9238 12.1455 23.5087 11.7659 23.2497 11.3206C22.7734 10.5016 21.8711 9.96935 20.6688 9.84891V15.2519L21.6781 15.5178C24.4871 16.2551 25.8125 17.5605 25.8125 19.8208C25.8125 22.4679 23.8426 24.2568 20.6688 24.5106V25.4899C20.6688 25.9037 20.3421 26.2391 19.9392 26.2391C19.5363 26.2391 19.2096 25.9037 19.2096 25.4899V24.5106C16.8094 24.3309 15.0894 23.1537 14.4466 21.4147ZM16.6925 12.496C16.6925 13.6201 17.4707 14.4179 18.9299 14.7926L19.2096 14.8651V9.89726C17.6774 10.1632 16.6925 11.1543 16.6925 12.496ZM23.7453 19.9659C23.7453 18.6725 22.9549 17.911 21.1552 17.4517L20.6688 17.3309V22.7217C22.5901 22.5646 23.7453 21.5251 23.7453 19.9659Z" fill="#101010"/>
<path fill-rule="evenodd" clip-rule="evenodd" d="M3.53125 0.375C1.92617 0.375 0.625 1.71113 0.625 3.35932V28.3993C0.625 29.1908 0.931192 29.9499 1.47622 30.5095L1.87749 30.9216C2.79084 31.8595 4.27166 31.8595 5.18501 30.9216C5.34172 30.7607 5.59578 30.7607 5.75249 30.9216C6.66584 31.8595 8.14666 31.8595 9.06001 30.9216C9.21672 30.7607 9.47079 30.7607 9.62749 30.9216C10.5408 31.8595 12.0217 31.8595 12.935 30.9216C13.0917 30.7607 13.3458 30.7607 13.5025 30.9216C14.4158 31.8595 15.8967 31.8595 16.81 30.9216C16.9667 30.7607 17.2208 30.7607 17.3775 30.9216C18.2908 31.8595 19.7717 31.8595 20.685 30.9216C20.8417 30.7607 21.0958 30.7607 21.2525 30.9216C22.1658 31.8595 23.6467 31.8595 24.56 30.9216C24.7167 30.7607 24.9708 30.7607 25.1275 30.9216C26.0408 31.8595 27.5217 31.8595 28.435 30.9216C28.5917 30.7607 28.8458 30.7607 29.0025 30.9216C29.9158 31.8595 31.3967 31.8595 32.31 30.9216C32.4667 30.7607 32.7208 30.7607 32.8775 30.9216C33.7908 31.8595 35.2717 31.8595 36.185 30.9216L36.4738 30.625C37.6011 31.5963 39.375 30.7859 39.375 29.2234V3.35932C39.375 1.71113 38.0738 0.375 36.4688 0.375H3.53125ZM2.5625 3.35932C2.5625 2.80992 2.99622 2.36455 3.53125 2.36455H36.4688C37.0038 2.36455 37.4375 2.80992 37.4375 3.35932V28.8657C36.7505 28.404 35.8198 28.483 35.2163 29.1027L34.815 29.5148C34.6583 29.6757 34.4042 29.6757 34.2475 29.5148C33.3342 28.5769 31.8533 28.5769 30.94 29.5148C30.7833 29.6757 30.5292 29.6757 30.3725 29.5148C29.4592 28.5769 27.9783 28.5769 27.065 29.5148C26.9083 29.6757 26.6542 29.6757 26.4975 29.5148C25.5842 28.5769 24.1033 28.5769 23.19 29.5148C23.0333 29.6757 22.7792 29.6757 22.6225 29.5148C21.7092 28.5769 20.2283 28.5769 19.315 29.5148C19.1583 29.6757 18.9042 29.6757 18.7475 29.5148C17.8342 28.5769 16.3533 28.5769 15.44 29.5148C15.2833 29.6757 15.0292 29.6757 14.8725 29.5148C13.9592 28.5769 12.4783 28.5769 11.565 29.5148C11.4083 29.6757 11.1542 29.6757 10.9975 29.5148C10.0842 28.5769 8.60334 28.5769 7.68999 29.5148C7.53328 29.6757 7.27922 29.6757 7.12251 29.5148C6.20916 28.5769 4.72834 28.5769 3.81499 29.5148C3.65829 29.6757 3.40422 29.6757 3.24751 29.5148L2.84624 29.1027C2.66456 28.9162 2.5625 28.6631 2.5625 28.3993V3.35932Z" fill="#101010"/>
</svg>
