<svg width="161" height="42" viewBox="0 0 161 42" fill="none" xmlns="http://www.w3.org/2000/svg">
<path d="M0.735 32H7.129V0.72H3.955C1.793 0.72 0.735 1.87 0.735 4.078V32ZM17.1114 38.486C17.1114 40.51 16.0994 41.522 14.0754 41.522H10.9934V18.246C11.3154 10.978 15.0874 7.39 22.4014 7.39C29.9454 7.39 33.7174 11.484 33.7174 19.672C33.7174 27.952 30.4974 32.23 24.0114 32.46C20.9754 32.46 18.6754 31.218 17.1114 28.688V38.486ZM22.3094 26.986C25.6214 26.986 27.3234 24.64 27.4614 19.948C27.4614 15.026 25.7134 12.588 22.2174 12.588C18.7214 12.588 17.0654 15.026 17.1114 19.948C17.2954 24.64 18.9974 26.986 22.3094 26.986ZM58.7259 24.548H54.2179C53.3899 24.548 52.6999 24.824 52.1479 25.422C50.9519 26.572 49.6179 27.17 48.1919 27.17C45.2019 27.17 43.5919 25.284 43.3619 21.558H59.0939C59.5539 12.036 55.9199 7.298 48.1919 7.298C40.7859 7.344 37.0599 11.484 37.0599 19.764C37.0599 28.044 40.7399 32.322 48.0999 32.552C54.0799 32.552 57.3919 29.7 58.7259 24.548ZM48.0999 12.312C50.7219 12.312 52.2399 13.968 52.6079 17.188H43.4539C43.9139 13.968 45.4779 12.312 48.0999 12.312ZM88.2629 22.478C88.2629 18.338 86.4689 16.314 83.3869 15.118C85.8249 13.922 87.1589 11.944 87.1589 8.632C87.1589 3.066 83.2489 0.72 77.3609 0.72H65.8609C64.0669 0.72 62.6409 2.284 62.6409 4.078V32H76.8549C83.6169 32 88.2629 28.964 88.2629 22.478ZM80.7189 9.46C80.7189 12.082 78.6489 12.864 76.1189 12.864H68.9429V6.148H76.0269C78.9249 6.148 80.7189 6.838 80.7189 9.46ZM81.5009 22.294C81.5009 25.422 79.5689 26.342 76.3949 26.342H68.9429V18.154H76.3029C79.6149 18.154 81.5009 19.074 81.5009 22.294ZM100.457 27.492C98.5253 27.492 97.5133 26.572 97.3753 24.64C97.3753 22.846 98.6173 21.696 101.055 21.236C102.849 20.868 104.505 20.362 105.931 19.764V22.018C105.931 25.468 103.861 27.492 100.457 27.492ZM101.883 12.312C104.413 12.312 105.701 13.002 105.839 14.382C105.839 15.716 104.505 16.498 101.883 16.82C95.7193 17.418 91.4873 18.982 91.3493 24.824C91.3493 30.206 95.3973 32.92 101.239 32.46C107.817 32 111.865 29.01 111.865 22.294V14.014C111.727 9.506 108.323 7.298 101.607 7.298C95.9953 7.298 92.8213 9.506 92.0853 14.014H98.2033C98.5253 12.864 99.7213 12.312 101.883 12.312ZM136.247 32V17.694C136.293 10.748 132.889 7.298 125.943 7.298C118.997 7.298 115.501 10.748 115.501 17.694V32H121.711V16.452C121.757 13.922 123.137 12.68 125.851 12.68C128.565 12.68 129.945 13.922 130.083 16.452V28.964C130.083 30.896 131.095 31.862 133.119 32H136.247ZM142.86 0.72H139.686V32H145.804V23.122C145.804 22.478 146.126 22.064 146.77 21.926C147.552 21.926 148.334 22.616 149.116 23.996L153.44 32H160.8L152.29 17.556L160.708 8.54H153.348L145.804 17.188V3.71C145.804 2.1 144.47 0.72 142.86 0.72Z" fill="#FAFAFA"/>
</svg>
