<svg width="49" height="29" viewBox="0 0 49 29" fill="none" xmlns="http://www.w3.org/2000/svg">
<path d="M24.5 3.80152C21.5784 6.45259 19.7463 10.2642 19.7463 14.5C19.7463 18.7358 21.5784 22.5474 24.5 25.1985C27.4216 22.5474 29.2537 18.7358 29.2537 14.5C29.2537 10.2642 27.4216 6.45259 24.5 3.80152Z" fill="#F97841"/>
<path fill-rule="evenodd" clip-rule="evenodd" d="M24.5 3.80152C27.4216 6.45259 29.2537 10.2642 29.2537 14.5C29.2537 18.7358 27.4216 22.5474 24.5 25.1985C27.1019 27.5595 30.5678 29 34.3731 29C42.4513 29 49 22.5081 49 14.5C49 6.49187 42.4513 0 34.3731 0C30.5678 0 27.1019 1.44054 24.5 3.80152Z" fill="#EC9C00"/>
<path d="M0 14.5C0 22.5081 6.54867 29 14.6269 29C18.4322 29 21.8981 27.5595 24.5 25.1985C21.5784 22.5474 19.7463 18.7358 19.7463 14.5C19.7463 10.2642 21.5784 6.45259 24.5 3.80152C21.8981 1.44054 18.4322 0 14.6269 0C6.54867 0 0 6.49187 0 14.5Z" fill="#FF5151"/>
</svg>
