<svg xmlns="http://www.w3.org/2000/svg" xmlns:xlink="http://www.w3.org/1999/xlink" viewBox="0,0,256,256" width="100px" height="100px" fill-rule="nonzero"><g fill="#ffffff" fill-rule="nonzero" stroke="none" stroke-width="1" stroke-linecap="butt" stroke-linejoin="miter" stroke-miterlimit="10" stroke-dasharray="" stroke-dashoffset="0" font-family="none" font-weight="none" font-size="none" text-anchor="none" style="mix-blend-mode: normal"><g transform="scale(2.56,2.56)"><path d="M34,15c-3.25209,0 -6.19186,2.05285 -8.70312,5.43359c-2.51126,3.38074 -4.684,8.15493 -6.49805,14.01563c-3.6281,11.72139 -5.79883,27.79593 -5.79883,45.55078c0.00006,0.55226 0.44774,0.99994 1,1h9c0.55226,-0.00006 0.99994,-0.44774 1,-1c0,-16.36266 1.17723,-30.82064 3.12305,-41.12305c0.97291,-5.1512 2.14593,-9.26817 3.41211,-12.01172c0.63309,-1.37177 1.29409,-2.395 1.9043,-3.02344c0.61021,-0.62843 1.10788,-0.8418 1.56055,-0.8418c0.47138,0 0.99756,0.21068 1.62695,0.78711c0.6294,0.57643 1.31594,1.50628 1.98633,2.75586c1.34077,2.49915 2.62616,6.25462 3.71875,10.95508c2.18519,9.40092 3.62565,22.5949 3.66797,37.50391c0.00113,0.5515 0.4485,0.99799 1,0.99805h4h4c0.5515,-0.00005 0.99887,-0.44655 1,-0.99805c0.04232,-14.90901 1.48278,-28.10298 3.66797,-37.50391c1.09259,-4.70046 2.37798,-8.45592 3.71875,-10.95508c0.67038,-1.24958 1.35693,-2.17943 1.98633,-2.75586c0.6294,-0.57643 1.15557,-0.78711 1.62695,-0.78711c0.45266,0 0.95034,0.21336 1.56055,0.8418c0.61021,0.62843 1.27121,1.65167 1.9043,3.02344c1.26618,2.74354 2.4392,6.86052 3.41211,12.01172c1.94581,10.30241 3.12305,24.76038 3.12305,41.12305c0.00006,0.55226 0.44774,0.99994 1,1h9c0.55226,-0.00006 0.99994,-0.44774 1,-1c0,-17.75485 -2.17073,-33.82939 -5.79883,-45.55078c-1.81405,-5.86069 -3.98679,-10.63488 -6.49805,-14.01562c-2.51126,-3.38074 -5.45103,-5.43359 -8.70312,-5.43359c-3.6621,0 -6.99156,2.40775 -9.82031,6.36914c-2.40609,3.3695 -4.43521,8.12309 -6.17969,13.59766c-1.74448,-5.47456 -3.7736,-10.22816 -6.17969,-13.59766c-2.82875,-3.96139 -6.15821,-6.36914 -9.82031,-6.36914zM34,17c2.7789,0 5.57136,1.85939 8.19336,5.53125c2.622,3.67186 4.98687,9.0805 6.84375,15.73828c0.12113,0.43158 0.51464,0.72984 0.96289,0.72984c0.44825,0 0.84176,-0.29826 0.96289,-0.72984c1.85688,-6.65778 4.22175,-12.06642 6.84375,-15.73828c2.622,-3.67186 5.41446,-5.53125 8.19336,-5.53125c2.40841,0 4.79757,1.52855 7.09766,4.625c2.30008,3.09645 4.42253,7.69496 6.19336,13.41602c3.47268,11.21929 5.59522,26.77505 5.67773,43.95898h-7.00586c-0.04992,-16.01777 -1.18252,-30.23005 -3.12109,-40.49414c-0.99084,-5.24617 -2.17454,-9.47534 -3.56055,-12.47852c-0.693,-1.50159 -1.43384,-2.70138 -2.28516,-3.57812c-0.85132,-0.87675 -1.87626,-1.44922 -2.99609,-1.44922c-1.08762,0 -2.1034,0.51103 -2.97852,1.3125c-0.87511,0.80147 -1.6562,1.90528 -2.39648,3.28516c-1.48058,2.75975 -2.78897,6.6406 -3.90625,11.44727c-2.18351,9.39371 -3.58949,22.34273 -3.69336,36.95508h-3.02539h-3.02539c-0.10387,-14.61234 -1.50985,-27.56137 -3.69336,-36.95508c-1.11728,-4.80666 -2.42567,-8.68751 -3.90625,-11.44727c-0.74029,-1.37988 -1.52137,-2.48369 -2.39648,-3.28516c-0.87512,-0.80147 -1.8909,-1.3125 -2.97852,-1.3125c-1.11984,0 -2.14478,0.57247 -2.99609,1.44922c-0.85132,0.87675 -1.59215,2.07654 -2.28516,3.57813c-1.38601,3.00317 -2.5697,7.23234 -3.56055,12.47852c-1.93858,10.26409 -3.07117,24.47637 -3.12109,40.49414h-7.00586c0.08251,-17.18394 2.20505,-32.73969 5.67773,-43.95898c1.77083,-5.72106 3.89328,-10.31957 6.19336,-13.41602c2.30008,-3.09645 4.68925,-4.625 7.09766,-4.625zM20.67578,44.93555c-0.23744,0.00323 -0.43985,0.173 -0.48437,0.40625c-1.25411,6.09082 -2.22361,13.13814 -2.75,21.03906c-0.01816,0.27549 0.19036,0.51358 0.46584,0.53191c0.27548,0.01833 0.5137,-0.19004 0.53221,-0.4655c0.52361,-7.85908 1.48658,-14.86311 2.73047,-20.9043c0.03275,-0.14893 -0.00424,-0.30467 -0.10047,-0.42297c-0.09623,-0.11829 -0.24118,-0.18621 -0.39367,-0.18445zM17.72852,68.96875c-0.25645,0.01695 -0.4583,0.22555 -0.4668,0.48242c-0.03308,0.65366 -0.06278,1.31194 -0.08984,1.97656c-0.00743,0.1787 0.08107,0.34777 0.23215,0.4435c0.15108,0.09573 0.34175,0.10355 0.50016,0.02051c0.15841,-0.08303 0.26046,-0.24429 0.26769,-0.423c0.02693,-0.66137 0.05693,-1.31645 0.08984,-1.9668c0.00906,-0.13526 -0.03718,-0.26839 -0.12813,-0.36892c-0.09095,-0.10052 -0.21881,-0.15981 -0.3543,-0.16429c-0.01692,-0.00086 -0.03386,-0.00086 -0.05078,0zM17.57617,74.00195c-0.27614,-0.00323 -0.50262,0.218 -0.50586,0.49414c-0.01704,0.66057 -0.03194,1.32555 -0.04297,1.99609c-0.00431,0.27614 0.21605,0.5035 0.49219,0.50781c0.27614,0.00431 0.5035,-0.21605 0.50781,-0.49219c0.01097,-0.66746 0.02601,-1.3289 0.04297,-1.98633c0.00527,-0.13494 -0.04427,-0.26628 -0.13734,-0.36414c-0.09307,-0.09785 -0.22176,-0.1539 -0.3568,-0.1554z"></path></g></g></svg>