<svg width="20" height="20" viewBox="0 0 20 20" fill="none" xmlns="http://www.w3.org/2000/svg">
<path d="M0 6.25C0 9.28554 2.16405 11.8156 5.03355 12.3817C5.11666 11.4653 5.35195 10.5928 5.71394 9.78967C4.61828 9.42048 3.91512 8.58028 3.7487 7.38857H3.125V6.85562H3.70712V6.31298C3.70712 6.25484 3.70712 6.19671 3.71232 6.14341H3.125V5.61047H3.76429C4.04496 4.05039 5.26637 3.125 7.10109 3.125C7.4961 3.125 7.83914 3.16376 8.125 3.23159V4.14729C7.84953 4.07946 7.51169 4.04554 7.10629 4.04554C5.95764 4.04554 5.18321 4.62694 4.93893 5.61047H7.33498V6.14341H4.86097C4.85577 6.20155 4.85577 6.26453 4.85577 6.32752V6.85562H7.33498V7.38857H4.91294C5.0604 8.14115 5.4981 8.6768 6.16855 8.92464C7.47106 6.77211 9.74446 5.27273 12.3817 5.03355C11.8156 2.16405 9.28554 0 6.25 0C2.79822 0 0 2.79822 0 6.25ZM20 13.125C20 16.922 16.922 20 13.125 20C9.32804 20 6.25 16.922 6.25 13.125C6.25 9.32804 9.32804 6.25 13.125 6.25C16.922 6.25 20 9.32804 20 13.125ZM10.3125 14.7777C10.3983 15.8206 11.2452 16.6336 12.7674 16.7298V17.5H13.4426V16.7245C15.0162 16.6175 15.9375 15.7992 15.9375 14.6119C15.9375 13.5315 15.2337 12.9752 13.9748 12.6864L13.4426 12.5634V10.4668C14.1178 10.5417 14.547 10.9001 14.65 11.3975H15.8345C15.7487 10.392 14.8617 9.60575 13.4426 9.52017V8.75H12.7674V9.53622C11.4226 9.66458 10.5071 10.4508 10.5071 11.5633C10.5071 12.5474 11.188 13.1731 12.321 13.4299L12.7674 13.5368V15.7618C12.075 15.6601 11.6172 15.2911 11.5142 14.7777H10.3125ZM12.7616 12.4083C12.0979 12.2586 11.7373 11.9537 11.7373 11.4937C11.7373 10.9803 12.1265 10.5952 12.7674 10.4829V12.4083H12.7616ZM13.5399 13.7133C14.3467 13.8952 14.7187 14.1893 14.7187 14.7081C14.7187 15.3018 14.2551 15.7083 13.4426 15.7832V13.6919L13.5399 13.7133Z" fill="#FAFAFA"/>
</svg>
